<?xml version="1.0" encoding="utf-8"?>
<!-- Generator: Adobe Illustrator 27.2.0, SVG Export Plug-In . SVG Version: 6.00 Build 0)  -->
<svg version="1.1" id="Layer_1" xmlns="http://www.w3.org/2000/svg" xmlns:xlink="http://www.w3.org/1999/xlink" x="0px" y="0px"
	 viewBox="0 0 645.99 157.43" style="enable-background:new 0 0 645.99 157.43;" xml:space="preserve">
<style type="text/css">
	.st0{fill:#D1D3D4;}
	.st1{fill:#6D6E71;}
	.st2{fill:#F37423;}
	.st3{fill:url(#SVGID_1_);}
	.st4{fill:#FBB040;}
	.st5{opacity:0.41;}
	.st6{fill:url(#SVGID_00000011011365166977696030000008826246749801228676_);}
</style>
<g>
	<ellipse class="st0" cx="64.6" cy="107.4" rx="29.32" ry="4.58"/>
	<g>
		<g>
			<path class="st1" d="M156.12,59.21c-7.8,0-14.9,4.11-19.01,10.87v-28.4c0-0.89-0.75-1.96-1.68-1.96c-1.06,0-1.78,1.01-1.78,1.96
				v62.36c0,1.01,0.76,1.78,1.78,1.78c0.9,0,1.68-0.83,1.68-1.78v-9.03c4.12,6.71,11.23,10.8,19.01,10.8
				c12.49,0,22.66-10.5,22.66-23.4C178.77,69.62,168.61,59.21,156.12,59.21z M156.12,102.36c-10.48,0-19.01-8.95-19.01-19.94l0-0.82
				c0.36-10.44,8.88-18.94,19.01-18.94c10.59,0,19.2,8.86,19.2,19.76C175.32,93.42,166.7,102.36,156.12,102.36z"/>
			<path class="st1" d="M205.06,59.21c-12.13,0-22.01,10.45-22.01,23.3c0,12.85,9.87,23.31,22.01,23.31
				c12.18,0,22.1-10.45,22.1-23.31C227.16,69.67,217.25,59.21,205.06,59.21z M205.06,62.67c10.28,0,18.64,8.9,18.64,19.85
				c0,10.95-8.36,19.85-18.64,19.85c-10.23,0-18.55-8.9-18.55-19.85C186.51,71.57,194.83,62.67,205.06,62.67z"/>
			<path class="st1" d="M261.19,83.99c-2.95-1.94-6.78-2.99-11.71-3.98c-4.4-0.9-7.55-2.02-9.63-3.44c-2.2-1.5-3.19-3.13-3.19-5.28
				c0-2.18,1.14-4.15,3.4-5.86c2.34-1.78,5.58-2.76,9.12-2.76c4.79,0,8.63,2.52,12.12,4.82c0.28,0.19,0.61,0.29,0.95,0.29
				c0.6,0,1.16-0.31,1.52-0.84c0.41-0.68,0.31-1.77-0.54-2.34c-3.99-2.73-8.35-5.39-14.06-5.39c-8.91,0-15.97,5.3-16.07,12.07
				c0,3.19,1.75,6.18,4.78,8.16c2.52,1.82,6.06,3.07,10.91,3.82l0.17-0.01c4.45,0.85,7.81,2.04,10.27,3.62
				c2.35,1.65,3.48,3.54,3.56,5.94c0,2.48-1.37,4.82-3.84,6.59c-2.71,1.93-6.06,2.96-9.69,2.96c-7.03,0-13.01-4.38-14.63-5.68
				c-0.34-0.34-0.77-0.53-1.2-0.53c-0.55,0-1.06,0.31-1.31,0.76c-0.3,0.38-0.43,0.84-0.37,1.28c0.06,0.42,0.31,0.78,0.63,1
				c2.43,1.99,8.93,6.63,16.88,6.63c9.43,0,16.9-5.71,16.99-13C266.27,89.34,264.47,86.21,261.19,83.99z"/>
			<path class="st1" d="M301.86,83.99c-2.95-1.94-6.78-2.99-11.71-3.98c-4.4-0.9-7.55-2.02-9.63-3.44c-2.2-1.5-3.19-3.13-3.19-5.28
				c0-2.17,1.14-4.15,3.4-5.86c2.34-1.78,5.58-2.76,9.12-2.76c4.79,0,8.63,2.52,12.12,4.82c0.28,0.19,0.61,0.29,0.95,0.29
				c0.6,0,1.16-0.31,1.52-0.84c0.41-0.68,0.29-1.79-0.54-2.34c-3.99-2.73-8.35-5.39-14.06-5.39c-8.91,0-15.97,5.3-16.07,12.07
				c0,3.19,1.75,6.18,4.78,8.16c2.52,1.82,6.06,3.07,10.91,3.82l0.17-0.01c4.45,0.85,7.81,2.04,10.27,3.62
				c2.35,1.65,3.48,3.54,3.56,5.94c0,2.48-1.36,4.82-3.84,6.59c-2.71,1.93-6.06,2.96-9.69,2.96c-7.03,0-13.01-4.38-14.63-5.68
				c-0.34-0.34-0.77-0.53-1.2-0.53c-0.56,0-1.06,0.31-1.31,0.76c-0.3,0.38-0.44,0.84-0.37,1.28c0.06,0.42,0.31,0.78,0.64,1
				c2.43,1.99,8.93,6.63,16.88,6.63c9.43,0,16.9-5.71,17-13C306.94,89.35,305.14,86.21,301.86,83.99z"/>
			<path class="st1" d="M383.99,39.72c-0.93,0-1.68,1.07-1.68,1.96v28.41c-4.11-6.76-11.22-10.88-19.02-10.88
				c-12.49,0-22.65,10.41-22.65,23.21c0,12.9,10.16,23.4,22.65,23.4c7.78,0,14.89-4.09,19.02-10.8v9.03c0,0.95,0.79,1.78,1.68,1.78
				c1.01,0,1.78-0.76,1.78-1.78V41.68C385.77,40.74,385.09,39.72,383.99,39.72z M363.3,62.67c10.13,0,18.66,8.5,19.02,18.92v0.84
				c0,11-8.53,19.94-19.02,19.94c-10.59,0-19.2-8.95-19.2-19.94C344.1,71.53,352.71,62.67,363.3,62.67z"/>
			<path class="st1" d="M395.92,44.55c-1.06,0-1.77,0.71-1.77,1.78v2.23c0,0.83,0.66,1.68,1.77,1.68c0.87,0,1.68-0.82,1.68-1.68
				v-2.23C397.6,45.21,396.75,44.55,395.92,44.55z"/>
			<path class="st1" d="M395.92,59.21c-1.09,0-1.77,0.64-1.77,1.68v43.15c0,1.01,0.76,1.78,1.77,1.78c0.9,0,1.68-0.83,1.68-1.78
				V60.89C397.6,59.79,396.76,59.21,395.92,59.21z"/>
			<path class="st1" d="M434.2,83.99c-2.95-1.94-6.78-2.99-11.7-3.98c-4.4-0.9-7.55-2.02-9.63-3.44c-2.2-1.5-3.18-3.13-3.18-5.28
				c0-2.18,1.14-4.15,3.39-5.86c2.34-1.78,5.58-2.76,9.12-2.76c4.79,0,8.63,2.52,12.12,4.82c0.28,0.19,0.61,0.29,0.95,0.29
				c0.6,0,1.16-0.31,1.52-0.84c0.41-0.68,0.29-1.79-0.54-2.34c-3.99-2.73-8.35-5.39-14.06-5.39c-8.91,0-15.97,5.3-16.07,12.07
				c0,3.19,1.75,6.18,4.78,8.16c2.52,1.82,6.06,3.07,10.91,3.82l0.17-0.01c4.45,0.85,7.81,2.04,10.27,3.62
				c2.35,1.65,3.48,3.54,3.56,5.94c0,2.48-1.37,4.82-3.84,6.59c-2.71,1.93-6.06,2.96-9.69,2.96c-7.03,0-13.01-4.38-14.63-5.68
				c-0.34-0.34-0.77-0.53-1.2-0.53c-0.55,0-1.06,0.31-1.31,0.76c-0.3,0.38-0.43,0.84-0.37,1.28c0.06,0.42,0.31,0.78,0.63,1
				c2.43,1.99,8.93,6.63,16.88,6.63c9.43,0,16.9-5.71,17-13C439.29,89.35,437.48,86.21,434.2,83.99z"/>
		</g>
		<g>
			<path class="st2" d="M471.03,59.21c-7.66,0-14.83,4.16-18.83,10.75v-8.98c0-1.03-0.71-1.77-1.68-1.77
				c-1.06,0-1.77,0.71-1.77,1.77v62.92c0,1.06,0.71,1.77,1.77,1.77c0.97,0,1.68-0.75,1.68-1.77V94.66
				c4.04,6.56,11.21,10.7,18.83,10.7c12.39,0,22.47-10.37,22.47-23.12C493.5,69.33,483.63,59.21,471.03,59.21z M471.03,101.81
				c-10.38,0-18.83-8.78-18.83-19.57l0-0.82c0.36-10.34,8.81-18.75,18.83-18.75c10.43,0,18.92,8.78,18.92,19.57
				C489.95,93.03,481.46,101.81,471.03,101.81z"/>
			<path class="st2" d="M505.93,39.72c-1.01,0-1.77,0.76-1.77,1.78v62.55c0,1.01,0.76,1.78,1.77,1.78c0.94,0,1.68-0.78,1.68-1.78
				V41.5C507.61,40.5,506.87,39.72,505.93,39.72z"/>
			<path class="st2" d="M559.39,59.21c-1.06,0-1.77,0.92-1.77,1.77v9.09c-4.03-6.66-11.1-10.86-18.55-10.86
				c-12.13,0-22.01,10.45-22.01,23.3c0,12.85,9.87,23.31,22.01,23.31c7.61,0,14.53-4.1,18.55-10.83v9.05c0,1.06,0.71,1.78,1.77,1.78
				c0.99,0,1.68-0.73,1.68-1.78V60.98C561.07,60.15,560.38,59.21,559.39,59.21z M539.06,102.36c-10.23,0-18.55-8.9-18.55-19.85
				c0-10.89,8.32-19.76,18.55-19.76c10.23,0,18.55,8.86,18.55,19.76C557.61,93.46,549.29,102.36,539.06,102.36z"/>
			<path class="st2" d="M609.59,59.22c-1.01,0-1.77,0.76-1.77,1.77l0,26.5c-0.35,8.23-6.99,14.68-15.13,14.68
				c-8.48,0-15.37-6.86-15.37-15.29V60.99c0-0.94-0.79-1.77-1.69-1.77c-1.01,0-1.77,0.76-1.77,1.77v25.89
				c0,10.34,8.45,18.75,18.83,18.75c6.13,0,11.75-2.96,15.13-7.85v4.87c0,10.16-8.28,18.43-18.46,18.43c-2.81,0-5.38-0.62-8.12-1.98
				c-0.18-0.08-0.39-0.12-0.61-0.12c-0.59,0-1.3,0.31-1.5,0.9c-0.28,0.48-0.34,0.99-0.19,1.44c0.14,0.43,0.47,0.77,0.89,0.94
				c3.02,1.51,6.22,2.27,9.52,2.27c12.09,0,21.92-9.82,21.92-21.89V60.99C611.28,60.05,610.49,59.22,609.59,59.22z"/>
		</g>
	</g>
	<g>
		<g>
			
				<linearGradient id="SVGID_1_" gradientUnits="userSpaceOnUse" x1="2071.6082" y1="-2279.4368" x2="2141.7993" y2="-2279.8198" gradientTransform="matrix(0.7231 -0.6907 0.6907 0.7231 129.9531 3172.8057)">
				<stop  offset="0" style="stop-color:#DE6525"/>
				<stop  offset="0.1742" style="stop-color:#E16C27"/>
				<stop  offset="0.4549" style="stop-color:#E77E2D"/>
				<stop  offset="0.8054" style="stop-color:#F29C38"/>
				<stop  offset="0.9732" style="stop-color:#FBB040"/>
			</linearGradient>
			<path class="st3" d="M102.01,47.13c-13.39-14.02-35.6-14.53-49.62-1.14c-14.02,13.39-14.53,35.6-1.14,49.62
				c13.39,14.01,35.6,14.52,49.62,1.14C114.89,83.36,115.4,61.15,102.01,47.13z"/>
			<path class="st4" d="M76.64,107.61L76.64,107.61c-10,0-19.31-3.98-26.22-11.21c-13.8-14.45-13.27-37.44,1.18-51.24
				c6.77-6.47,15.66-10.03,25.03-10.03c10,0,19.31,3.98,26.22,11.21c6.69,7,10.25,16.19,10.03,25.86
				c-0.22,9.68-4.2,18.69-11.2,25.38C94.89,104.05,86,107.61,76.64,107.61z M76.63,37.42c-8.77,0-17.09,3.34-23.44,9.4
				c-13.54,12.93-14.03,34.46-1.1,48c6.47,6.77,15.19,10.5,24.55,10.5c8.77,0,17.1-3.34,23.44-9.4c6.56-6.26,10.28-14.7,10.49-23.77
				c0.21-9.06-3.13-17.67-9.39-24.23C94.72,41.15,86,37.42,76.63,37.42z"/>
		</g>
	</g>
	<g class="st5">
		
			<linearGradient id="SVGID_00000138551930584535682240000016875400990308439965_" gradientUnits="userSpaceOnUse" x1="98.1227" y1="50.3535" x2="91.2626" y2="56.8662">
			<stop  offset="0" style="stop-color:#FFFFFF"/>
			<stop  offset="0.0931" style="stop-color:#FFFAF3"/>
			<stop  offset="0.2433" style="stop-color:#FFF0DC"/>
			<stop  offset="0.4319" style="stop-color:#FFE2BB"/>
			<stop  offset="0.6514" style="stop-color:#FECF8E"/>
			<stop  offset="0.8943" style="stop-color:#FCB856"/>
			<stop  offset="0.9732" style="stop-color:#FBB040"/>
		</linearGradient>
		<path style="fill:url(#SVGID_00000138551930584535682240000016875400990308439965_);" d="M104.37,60.92
			c-0.52-3.28-1.07-6.08-5.01-10.63c-3.37-3.89-8.34-6.53-13.31-7.52c-6.36-1.26-9.48,3.31-0.87,9.06
			c6.14,4.1,9.95,9.96,11.42,12.63C102.48,75.09,105.34,67.05,104.37,60.92z"/>
	</g>
</g>
</svg>
