<?xml version="1.0" encoding="UTF-8" standalone="no"?>
<!-- Generator: Adobe Illustrator 27.2.0, SVG Export Plug-In . SVG Version: 6.00 Build 0)  -->

<svg
   version="1.1"
   id="Layer_1"
   x="0px"
   y="0px"
   viewBox="0 0 64 64.000006"
   xml:space="preserve"
   sodipodi:docname="boss-icon-ball.svg"
   width="64"
   height="64"
   inkscape:version="1.2.2 (b0a84865, 2022-12-01)"
   xmlns:inkscape="http://www.inkscape.org/namespaces/inkscape"
   xmlns:sodipodi="http://sodipodi.sourceforge.net/DTD/sodipodi-0.dtd"
   xmlns="http://www.w3.org/2000/svg"
   xmlns:svg="http://www.w3.org/2000/svg"><defs
   id="defs209" /><sodipodi:namedview
   id="namedview207"
   pagecolor="#505050"
   bordercolor="#ffffff"
   borderopacity="1"
   inkscape:showpageshadow="0"
   inkscape:pageopacity="0"
   inkscape:pagecheckerboard="1"
   inkscape:deskcolor="#505050"
   showgrid="false"
   showguides="true"
   inkscape:zoom="10.849769"
   inkscape:cx="28.756372"
   inkscape:cy="23.502804"
   inkscape:window-width="1390"
   inkscape:window-height="942"
   inkscape:window-x="0"
   inkscape:window-y="417"
   inkscape:window-maximized="0"
   inkscape:current-layer="Layer_1"><sodipodi:guide
     position="2.0000001,32.000001"
     orientation="1,0"
     id="guide638"
     inkscape:locked="false" /><sodipodi:guide
     position="32.000001,62.000003"
     orientation="0,-1"
     id="guide640"
     inkscape:locked="false" /><sodipodi:guide
     position="62.000003,32.000001"
     orientation="1,0"
     id="guide642"
     inkscape:locked="false" /><sodipodi:guide
     position="32.000001,2.0000001"
     orientation="0,-1"
     id="guide644"
     inkscape:locked="false" /><sodipodi:guide
     position="31.999999,4.0000006"
     orientation="1,0"
     id="guide646"
     inkscape:locked="false" /><sodipodi:guide
     position="59.999997,32.000005"
     orientation="0,-1"
     id="guide648"
     inkscape:locked="false" /></sodipodi:namedview>
<style
   type="text/css"
   id="style132">
	.st0{fill:#D1D3D4;}
	.st1{fill:#6D6E71;}
	.st2{fill:#F37423;}
	.st3{fill:url(#SVGID_1_);}
	.st4{fill:#FBB040;}
	.st5{opacity:0.41;}
	.st6{fill:url(#SVGID_00000011011365166977696030000008826246749801228676_);}
</style>
<g
   id="g514"
   transform="matrix(0.82777949,0,0,0.82781457,-80.42036,-57.282331)"><g
     id="g183"
     transform="translate(59.179547,36.483056)">
		<g
   id="g181">
			
				<linearGradient
   id="SVGID_1_"
   gradientUnits="userSpaceOnUse"
   x1="2071.6082"
   y1="-2279.4368"
   x2="2141.7993"
   y2="-2279.8198"
   gradientTransform="matrix(0.7231,-0.6907,0.6907,0.7231,129.9531,3172.8057)">
				<stop
   offset="0"
   style="stop-color:#DE6525"
   id="stop166" />
				<stop
   offset="0.1742"
   style="stop-color:#E16C27"
   id="stop168" />
				<stop
   offset="0.4549"
   style="stop-color:#E77E2D"
   id="stop170" />
				<stop
   offset="0.8054"
   style="stop-color:#F29C38"
   id="stop172" />
				<stop
   offset="0.9732"
   style="stop-color:#FBB040"
   id="stop174" />
			</linearGradient>
			<path
   class="st3"
   d="M 102.01,47.13 C 88.62,33.11 66.41,32.6 52.39,45.99 38.37,59.38 37.86,81.59 51.25,95.61 c 13.39,14.01 35.6,14.52 49.62,1.14 14.02,-13.39 14.53,-35.6 1.14,-49.62 z"
   id="path177"
   style="fill:url(#SVGID_1_)" />
			<path
   class="st4"
   d="m 76.64,107.61 v 0 c -10,0 -19.31,-3.98 -26.22,-11.21 C 36.62,81.95 37.15,58.96 51.6,45.16 58.37,38.69 67.26,35.13 76.63,35.13 c 10,0 19.31,3.98 26.22,11.21 6.69,7 10.25,16.19 10.03,25.86 -0.22,9.68 -4.2,18.69 -11.2,25.38 -6.79,6.47 -15.68,10.03 -25.04,10.03 z M 76.63,37.42 c -8.77,0 -17.09,3.34 -23.44,9.4 -13.54,12.93 -14.03,34.46 -1.1,48 6.47,6.77 15.19,10.5 24.55,10.5 8.77,0 17.1,-3.34 23.44,-9.4 6.56,-6.26 10.28,-14.7 10.49,-23.77 0.21,-9.06 -3.13,-17.67 -9.39,-24.23 C 94.72,41.15 86,37.42 76.63,37.42 Z"
   id="path179" />
		</g>
	</g><g
     class="st5"
     id="g202"
     transform="translate(59.179547,36.483056)">
		
			<linearGradient
   id="SVGID_00000138551930584535682240000016875400990308439965_"
   gradientUnits="userSpaceOnUse"
   x1="98.122704"
   y1="50.3535"
   x2="91.262604"
   y2="56.866199">
			<stop
   offset="0"
   style="stop-color:#FFFFFF"
   id="stop185" />
			<stop
   offset="0.0931"
   style="stop-color:#FFFAF3"
   id="stop187" />
			<stop
   offset="0.2433"
   style="stop-color:#FFF0DC"
   id="stop189" />
			<stop
   offset="0.4319"
   style="stop-color:#FFE2BB"
   id="stop191" />
			<stop
   offset="0.6514"
   style="stop-color:#FECF8E"
   id="stop193" />
			<stop
   offset="0.8943"
   style="stop-color:#FCB856"
   id="stop195" />
			<stop
   offset="0.9732"
   style="stop-color:#FBB040"
   id="stop197" />
		</linearGradient>
		<path
   style="fill:url(#SVGID_00000138551930584535682240000016875400990308439965_)"
   d="m 104.37,60.92 c -0.52,-3.28 -1.07,-6.08 -5.01,-10.63 -3.37,-3.89 -8.34,-6.53 -13.31,-7.52 -6.36,-1.26 -9.48,3.31 -0.87,9.06 6.14,4.1 9.95,9.96 11.42,12.63 5.88,10.63 8.74,2.59 7.77,-3.54 z"
   id="path200" />
	</g></g>
</svg>
